<svg xmlns="http://www.w3.org/2000/svg" viewBox="0 0 100 100" role="img"><g fill="#aeb4bd"><path d="M13.1 69.9L12.7 71.7L13.7 76L17 84L20.1 83.6L20.7 81.6L18.8 73.2L16.2 69.5ZM30.1 64.1L27.7 63.1L20.1 66L18.2 65.6L17 66.4L17 68.8L18.9 72.1L29.7 68.6ZM50.4 58.4L48.6 55.7L46.7 56.6L44.7 55.7L36.1 58.4L35.4 60L33.2 60.5L33.4 63.1L35.2 64.3L49.8 59.6ZM84.2 49.4L80.1 50.6L82.2 57.8L86.9 56.1L85.2 50.4ZM78.7 50L76 49.6L59 55.1L57.8 54.7L52.3 56.8L51.8 60L34.2 65L33 63.7L30.9 64.1L30.9 68.9L30.3 69.5L19.5 73L22.1 83.6L25.6 82.6L25.8 78.7L27 76.6L32.6 74.6L34 78.1L32 83.8L32 88.3L33.4 89.6L40 89.8L41 87.9L39.3 86.5L40.4 82.8L39.6 80.3L41 78.5L42.6 78.1L42.8 76.6L45.5 76.6L47.5 75.6L45.7 70.9L41.8 72.1L42.8 74.6L43.9 74.8L42.2 76L40.4 75.4L39.6 73.4L40 72.1L41.8 70.7L45.5 69.7L46.1 67.2L47.5 71.1L47.9 75.2L49.2 76.4L50.4 79.7L51.8 80.5L56.1 78.5L57 77.5L56.4 72.7L53.1 69.5L52.7 67.2L54.3 67.8L56.8 71.7L61.5 70.7L62.9 67.8L74.2 64.3L77.3 65.2L81.6 63.5L80.7 59.2L77 58L74.8 56.4L62.1 60.2L61.3 59.6L74.4 55.5L80.9 58.6L81.2 58ZM51 34.8L50.8 39.8L45.5 40.2L45.5 45.9L50.4 45.9L50.8 51.2L56.2 51.4L56.8 51L57 45.9L61.9 45.9L61.9 40L57 40L56.6 34.8ZM27.9 36.5L28.3 37.3L38.7 41.2L40.4 41.4L41 40.4L40.8 39.1L29.3 34.8ZM77 35.2L75.2 34.6L66.2 39.5L67.8 41.2L76.8 36.9ZM37.7 21.7L37.3 23.4L44.7 33.2L46.1 31.8L45.9 30.9L38.7 21.3ZM69.1 21.3L68 21.3L61.7 30.7L61.1 31.8L62.1 32.8L63.5 33.2L69.7 23.2L69.9 22.1ZM53.1 14.8L52.3 15.6L52.3 29.1L54.3 29.9L55.1 29.3L55.1 15.2Z" fill-rule="evenodd"/></g></svg>