<svg xmlns="http://www.w3.org/2000/svg" viewBox="0 0 100 100" role="img"><g fill="#aeb4bd"><path d="M46.5 80.3L45.7 77.9L44.3 76.6L40.8 75.6L43 75.2L43 73L41.8 70.3L38.5 68.9L18.6 69.3L17 70.5L16.2 72.5L16.2 75.2L18.2 75.6L15.2 76.2L12.7 79.1L13.1 81.4L21.5 81.4L21.9 78.7L20.9 77.3L23.2 75L35.7 75L38.1 77.5L36.9 79.5L37.5 81.4L45.7 81.4ZM21.3 66.8L21.5 68.6L37.5 68.6L37.1 65.2L35.5 64.5L22.3 64.8ZM67.4 63.3L65.2 61.9L49.8 84.6L56.4 84.2L68.6 65.2ZM85 49.8L78.7 58.4L78.7 59.4L81.6 60.4L84.6 57.2L87.1 52.5ZM54.9 46.1L54.1 47.1L54.5 52.9L57.8 52.9L58.6 50.8L58.2 46.7ZM36.9 48L37.3 52.9L40.2 52.9L40.6 51.8L41.2 53.5L53.5 52.5L53.1 46.3L41 45.9L40.6 46.9L42 47.3L42 48ZM27.7 43.8L26.6 45.9L27 56.1L28.3 57.4L24.4 59.2L24.4 63.9L34.4 63.9L34.4 57.6L38.7 57.4L40 56.1L40 53.7L36.5 53.5L36.3 47.5L39.6 47.3L40 45.1L39.1 43.8ZM74.4 42.6L68 51L69.3 55.3L65.8 61.1L69.3 63.7L74.2 56.8L77.3 58.6L83.6 50.6L83.4 49.4ZM19.1 42.6L14.1 46.7L14.1 54.5L18.6 58.6L26 58.2L27.1 57.4L25.8 54.3L25.4 46.7L27 43ZM77 43L82 47.5L82.4 45.1L79.5 42.6ZM73.8 40.8L71.1 39.8L67 44.1L65 47.5L67 50L74 41.6ZM45.9 15.8L49.4 15.2L45.9 15.2ZM29.9 15.8L32.2 15.2L29.9 15.2Z" fill-rule="evenodd"/></g></svg>